<?xml version="1.0" standalone="no"?>
<!DOCTYPE svg PUBLIC "-//W3C//DTD SVG 20010904//EN"
 "http://www.w3.org/TR/2001/REC-SVG-20010904/DTD/svg10.dtd">
<svg version="1.0" xmlns="http://www.w3.org/2000/svg"
 width="500.000000pt" height="500.000000pt" viewBox="0 0 500.000000 500.000000"
 preserveAspectRatio="xMidYMid meet">

<g transform="translate(0.000000,500.000000) scale(0.100000,-0.100000)"
fill="#000000" stroke="none">
<path d="M77 4873 c-5 -8 43 -201 208 -848 54 -209 108 -425 121 -480 14 -55
37 -147 52 -205 l27 -105 184 -3 183 -2 -7 -28 c-4 -15 -13 -54 -20 -87 -14
-65 -102 -435 -137 -578 l-22 -88 22 -92 c12 -50 38 -157 57 -237 34 -138 105
-440 105 -447 0 -1 -82 -4 -183 -5 l-182 -3 -48 -190 c-27 -104 -118 -467
-203 -805 -85 -338 -157 -623 -160 -632 -4 -12 0 -18 11 -18 9 0 305 72 658
159 353 88 730 181 837 208 l195 48 3 173 c1 94 5 172 8 172 10 0 252 -57 471
-110 277 -68 259 -67 403 -31 69 16 195 46 280 65 85 20 191 44 235 56 44 11
86 20 93 20 9 0 12 -41 12 -173 l0 -173 268 -67 c1042 -259 1402 -347 1417
-347 11 0 15 6 11 18 -2 9 -43 170 -90 357 -196 783 -316 1257 -322 1266 -3 5
-86 9 -185 9 -167 0 -180 1 -176 18 3 9 13 51 22 92 10 41 48 203 86 358 38
156 69 294 69 307 0 20 -68 316 -150 651 -17 67 -30 124 -30 127 0 4 81 7 179
7 105 0 182 4 186 10 3 5 31 107 61 227 252 997 354 1406 351 1409 -2 3 -105
-20 -228 -50 -527 -128 -1128 -277 -1174 -290 -27 -8 -105 -27 -172 -42 l-123
-27 -2 -177 -3 -177 -85 19 c-47 11 -150 35 -230 55 -80 19 -209 50 -288 68
l-143 34 -82 -18 c-112 -25 -499 -117 -570 -136 -105 -27 -97 -39 -97 154 l0
169 -32 10 c-18 6 -62 17 -98 26 -126 30 -1366 336 -1461 361 -107 28 -106 28
-112 18z m4734 -260 c-16 -65 -69 -271 -116 -458 -182 -717 -206 -808 -211
-816 -3 -5 -94 -9 -203 -9 -109 0 -200 -2 -203 -5 -3 -3 5 -50 18 -103 13 -53
59 -249 104 -435 l81 -338 -22 -92 c-11 -51 -43 -184 -71 -297 -27 -113 -63
-261 -79 -330 -16 -69 -32 -133 -35 -142 -5 -17 9 -18 203 -18 l208 0 99 -392
c55 -216 119 -469 143 -563 86 -335 116 -456 112 -460 -3 -2 -49 7 -104 20
-114 28 -1298 322 -1332 331 -23 6 -23 8 -23 200 0 106 -3 195 -7 197 -5 3
-33 -2 -63 -9 -30 -7 -154 -36 -275 -64 -121 -29 -285 -67 -364 -86 -79 -19
-151 -32 -159 -29 -9 3 -77 19 -151 35 -75 16 -230 52 -346 80 -115 28 -238
57 -272 64 l-63 14 0 -198 0 -198 -192 -47 c-106 -26 -436 -107 -732 -181
-297 -74 -541 -133 -543 -130 -3 3 193 802 221 896 8 25 40 152 72 283 l58
237 209 0 c194 0 208 1 203 18 -3 9 -10 37 -15 62 -10 43 -64 269 -152 632
l-40 167 50 208 c95 389 161 664 161 668 0 3 -94 5 -209 5 l-209 0 -26 108
c-14 59 -94 374 -176 701 -82 327 -147 597 -144 600 4 4 562 -129 774 -184 30
-8 177 -44 325 -81 149 -36 291 -72 318 -80 l47 -16 0 -194 c0 -133 3 -194 11
-194 6 0 47 9 92 21 45 11 118 29 162 39 44 10 190 44 325 75 135 32 250 58
255 57 6 0 39 -7 75 -15 36 -8 117 -27 180 -41 63 -14 210 -49 325 -76 116
-28 225 -54 242 -57 l33 -6 2 199 3 199 310 77 c906 226 1140 282 1143 276 2
-4 -10 -60 -27 -125z"/>
<path d="M1976 3289 c-63 -169 -97 -246 -113 -259 -41 -32 -29 -40 62 -40 47
0 85 3 85 6 0 4 -11 17 -25 30 -26 24 -27 39 -4 102 8 20 15 22 93 22 l84 0
12 -52 c12 -48 12 -53 -9 -69 -40 -33 -26 -39 89 -39 61 0 110 3 110 7 0 4
-11 16 -25 28 -19 16 -37 65 -90 245 -36 124 -68 233 -71 243 -4 13 -16 17
-57 17 l-52 0 -89 -241z m164 -81 c0 -5 -29 -8 -65 -8 -36 0 -65 4 -65 9 0 8
35 105 62 175 11 28 13 25 40 -70 15 -54 28 -102 28 -106z"/>
<path d="M3366 3318 c-88 -237 -110 -286 -131 -295 -8 -3 -15 -11 -15 -19 0
-11 18 -14 80 -14 85 0 97 8 59 39 -21 16 -21 21 -9 69 l12 52 88 0 88 0 12
-52 c10 -49 9 -54 -10 -70 -39 -31 -24 -38 85 -38 109 0 124 6 85 38 -14 12
-42 90 -92 260 l-72 242 -50 0 -51 0 -79 -212z m124 0 c12 -46 25 -91 27 -100
5 -16 -3 -18 -61 -18 -36 0 -66 3 -66 8 0 15 65 192 71 192 3 0 16 -37 29 -82z"/>
<path d="M1370 3505 c0 -8 6 -15 14 -15 8 0 17 -7 20 -16 3 -9 6 -110 6 -225
0 -198 -1 -209 -20 -221 -11 -7 -20 -19 -20 -26 0 -11 32 -13 168 -10 145 3
171 6 201 23 51 30 73 65 73 118 1 54 -19 90 -68 119 l-35 21 31 18 c91 56 92
176 0 213 -57 23 -370 24 -370 1z m298 -60 c32 -38 30 -89 -7 -126 -25 -24
-37 -29 -80 -29 l-51 0 0 96 0 97 58 -6 c45 -5 62 -12 80 -32z m-11 -220 c27
-19 42 -68 35 -113 -7 -48 -43 -72 -108 -72 l-54 0 0 100 0 100 53 0 c31 0 61
-6 74 -15z"/>
<path d="M2400 3512 c0 -4 9 -15 20 -25 19 -16 20 -29 20 -232 0 -204 -1 -215
-20 -227 -11 -7 -20 -18 -20 -25 0 -10 27 -13 105 -13 87 0 105 3 105 15 0 8
-7 15 -15 15 -25 0 -35 36 -35 129 l0 91 90 0 90 0 0 -100 c0 -89 -2 -101 -20
-112 -44 -28 -23 -38 80 -38 103 0 124 10 80 38 -19 12 -20 23 -20 221 0 115
3 216 6 225 3 9 12 16 20 16 8 0 14 7 14 15 0 12 -18 15 -100 15 -82 0 -100
-3 -100 -15 0 -8 7 -15 15 -15 20 0 26 -32 23 -120 l-3 -75 -85 0 -85 0 -3 83
c-3 77 -1 84 23 106 14 13 25 26 25 30 0 3 -47 6 -105 6 -58 0 -105 -3 -105
-8z"/>
<path d="M2980 3505 c0 -8 6 -15 14 -15 8 0 17 -7 20 -16 3 -9 6 -110 6 -225
0 -198 -1 -209 -20 -221 -44 -28 -23 -38 80 -38 103 0 124 10 80 38 -19 12
-20 23 -20 226 0 200 1 214 20 231 11 10 20 22 20 27 0 4 -45 8 -100 8 -82 0
-100 -3 -100 -15z"/>
<path d="M2491 2941 c-55 -14 -113 -62 -140 -116 -23 -44 -26 -61 -26 -160 0
-94 3 -116 22 -151 49 -91 147 -130 252 -101 44 13 58 13 66 4 6 -7 22 -11 38
-9 l27 3 0 95 c0 82 3 96 20 111 41 35 26 43 -80 43 -81 0 -100 -3 -100 -15 0
-8 9 -19 20 -25 17 -9 20 -21 20 -74 0 -70 -17 -96 -61 -96 -67 0 -104 77
-104 220 0 157 41 230 131 230 45 0 69 -16 85 -57 6 -16 16 -23 34 -23 24 0
25 3 25 54 0 42 -4 55 -17 61 -29 11 -176 15 -212 6z"/>
<path d="M1270 2925 c0 -8 6 -15 14 -15 8 0 17 -7 20 -16 3 -9 6 -110 6 -225
0 -198 -1 -209 -20 -221 -44 -28 -23 -38 80 -38 103 0 124 10 80 38 -17 11
-20 23 -20 97 l0 85 29 0 c36 0 46 -12 101 -124 l45 -91 78 -3 c62 -2 77 0 77
12 0 8 -9 17 -19 21 -11 3 -37 40 -60 85 -23 43 -53 88 -68 100 -14 11 -24 22
-22 23 2 2 19 14 37 26 41 29 62 69 62 121 0 59 -24 98 -73 121 -35 16 -66 19
-194 19 -129 0 -153 -2 -153 -15z m277 -60 c17 -19 23 -39 23 -75 0 -26 -3
-56 -6 -65 -9 -23 -57 -45 -99 -45 l-35 0 0 111 0 112 47 -6 c35 -4 53 -12 70
-32z"/>
<path d="M1760 2931 c0 -5 10 -15 23 -23 21 -15 22 -22 27 -211 6 -220 10
-234 85 -271 52 -26 167 -27 221 -3 79 36 94 89 94 323 0 143 1 154 20 164 39
21 19 30 -65 30 -89 0 -99 -6 -65 -40 18 -18 20 -33 20 -182 0 -177 -9 -229
-43 -253 -32 -23 -81 -19 -114 9 l-28 24 -3 200 c-3 194 -2 201 17 212 42 22
20 30 -84 30 -58 0 -105 -4 -105 -9z"/>
<path d="M2830 2930 c0 -5 9 -14 20 -20 19 -10 20 -21 20 -236 0 -217 -1 -226
-20 -231 -11 -3 -20 -12 -20 -19 0 -21 290 -20 353 2 115 39 130 185 25 244
l-40 23 34 19 c44 26 68 66 68 115 0 47 -22 81 -66 99 -40 17 -374 20 -374 4z
m269 -41 c38 -13 51 -35 51 -86 -1 -63 -37 -93 -114 -93 l-46 0 0 88 c0 49 3
92 7 95 10 11 67 8 102 -4z m29 -249 c40 -38 41 -121 2 -160 -16 -16 -34 -20
-80 -20 l-60 0 0 100 0 100 58 0 c44 0 63 -5 80 -20z"/>
<path d="M3300 2936 c0 -2 12 -16 26 -32 14 -16 52 -85 85 -154 58 -123 59
-126 59 -213 0 -80 -2 -89 -20 -94 -11 -3 -20 -12 -20 -19 0 -11 22 -14 105
-14 83 0 105 3 105 14 0 7 -9 16 -20 19 -18 5 -20 14 -20 93 l0 88 72 134 c39
74 82 141 95 149 39 26 26 33 -57 33 -80 0 -93 -6 -65 -30 8 -7 15 -20 15 -29
0 -18 -80 -191 -89 -191 -7 0 -91 183 -91 198 0 5 7 15 15 22 30 25 13 30 -90
30 -58 0 -105 -2 -105 -4z"/>
<path d="M1731 2356 c-54 -18 -107 -68 -133 -124 -40 -89 -33 -252 15 -324 33
-49 106 -82 186 -82 36 0 87 3 114 7 l47 8 0 60 c0 59 0 59 -30 59 -23 0 -31
-5 -36 -25 -8 -33 -50 -65 -85 -65 -39 0 -83 41 -98 92 -17 54 -17 199 -1 257
17 62 58 101 108 101 41 0 64 -17 76 -57 6 -17 15 -23 37 -23 28 0 29 1 29 54
0 64 -3 66 -110 72 -49 3 -90 -1 -119 -10z"/>
<path d="M2030 2347 c0 -7 9 -18 20 -25 19 -12 20 -23 20 -222 0 -197 -1 -211
-20 -230 -11 -11 -20 -24 -20 -30 0 -6 68 -10 185 -10 l185 0 0 43 c0 23 3 59
6 80 6 36 6 37 -24 37 -27 0 -32 -4 -37 -34 -11 -56 -37 -76 -100 -76 l-55 0
0 215 c0 203 1 216 20 232 11 10 20 21 20 25 0 5 -45 8 -100 8 -74 0 -100 -3
-100 -13z"/>
<path d="M2440 2345 c0 -8 6 -15 14 -15 23 0 26 -24 26 -203 0 -206 11 -242
82 -278 59 -31 177 -32 234 -2 71 37 79 61 82 281 3 177 5 193 23 202 38 21
18 30 -66 30 -69 0 -85 -3 -85 -15 0 -8 7 -15 15 -15 23 0 27 -36 23 -230 l-3
-182 -28 -24 c-30 -26 -75 -31 -109 -13 -39 21 -48 67 -48 254 0 164 1 176 20
187 44 28 23 38 -80 38 -82 0 -100 -3 -100 -15z"/>
<path d="M2990 2347 c0 -7 9 -18 20 -25 19 -12 20 -23 20 -222 0 -197 -1 -211
-20 -230 -11 -11 -20 -24 -20 -30 0 -14 284 -13 335 1 21 6 54 26 72 44 30 30
33 39 33 90 0 51 -3 60 -34 91 -19 19 -41 34 -50 34 -25 0 -19 14 15 34 91 54
91 173 -1 210 -53 21 -370 24 -370 3z m299 -63 c19 -23 22 -35 18 -68 -8 -58
-43 -86 -108 -86 l-49 0 0 96 0 97 58 -6 c46 -5 62 -11 81 -33z m-4 -229 c20
-19 25 -34 25 -75 0 -73 -29 -100 -105 -100 l-55 0 0 100 0 100 55 0 c46 0 60
-4 80 -25z"/>
<path d="M2240 1565 c-19 -23 -8 -26 20 -5 19 15 21 20 9 20 -9 0 -22 -7 -29
-15z"/>
<path d="M1735 1450 l0 -80 52 0 c42 0 55 4 67 22 14 19 14 25 1 44 -9 14 -11
25 -5 29 16 10 12 52 -6 59 -9 3 -37 6 -62 6 l-47 0 0 -80z m84 56 c15 -18 3
-46 -20 -46 -14 0 -19 7 -19 30 0 32 19 40 39 16z m-8 -66 c10 -6 19 -17 19
-25 0 -13 -28 -35 -44 -35 -3 0 -6 16 -6 35 0 38 2 40 31 25z"/>
<path d="M1933 1513 c-24 -67 -46 -120 -55 -130 -8 -10 -4 -13 14 -13 19 0 24
5 24 23 -1 17 5 23 28 25 26 3 28 1 24 -22 -5 -24 -2 -26 28 -26 30 0 33 2 24
18 -6 9 -19 44 -29 77 -18 62 -45 84 -58 48z m26 -70 c1 -7 -6 -13 -14 -13
-16 0 -19 17 -8 46 6 16 7 16 14 -2 4 -10 8 -25 8 -31z"/>
<path d="M2045 1450 c0 -79 0 -80 25 -80 24 0 25 3 22 40 -4 38 -3 40 23 40
26 0 27 -2 23 -40 -3 -37 -2 -40 22 -40 25 0 25 1 25 80 0 79 0 80 -25 80 -24
0 -26 -3 -22 -35 4 -32 2 -35 -23 -35 -25 0 -27 3 -23 35 4 32 2 35 -22 35
-25 0 -25 -1 -25 -80z"/>
<path d="M2218 1518 c7 -7 12 -37 12 -68 0 -31 -5 -61 -12 -68 -9 -9 -3 -12
27 -12 30 0 36 3 27 12 -7 7 -12 37 -12 68 0 31 5 61 12 68 9 9 3 12 -27 12
-30 0 -36 -3 -27 -12z"/>
<path d="M2323 1450 l-31 -80 25 0 c20 0 23 3 15 13 -16 19 1 39 29 35 18 -2
24 -9 23 -25 0 -18 5 -23 26 -23 l26 0 -26 80 c-33 105 -47 105 -87 0z m47 -1
c0 -10 -7 -19 -15 -19 -16 0 -19 9 -9 34 8 20 24 11 24 -15z"/>
<path d="M2515 1450 l0 -80 43 0 c24 0 52 5 63 10 24 13 25 56 2 69 -10 6 -13
11 -6 11 18 0 26 39 13 55 -8 10 -31 15 -64 15 l-51 0 0 -80z m73 61 c19 -11
11 -45 -11 -49 -13 -3 -17 3 -17 27 0 32 6 37 28 22z m-2 -69 c21 -14 24 -41
4 -52 -28 -15 -30 -13 -30 25 0 35 6 41 26 27z"/>
<path d="M2668 1518 c16 -16 16 -120 0 -136 -9 -9 7 -12 73 -12 82 0 86 1 85
23 -1 16 5 23 23 25 28 4 45 -16 29 -35 -8 -10 -2 -13 27 -13 29 0 35 3 27 13
-6 6 -18 42 -28 80 -25 93 -44 91 -81 -8 -27 -74 -43 -94 -43 -55 0 26 -8 25
-29 -2 -10 -12 -23 -18 -29 -14 -17 10 -16 133 1 139 6 3 -6 6 -27 6 -31 1
-37 -2 -28 -11z m202 -70 c0 -10 -7 -18 -15 -18 -17 0 -18 4 -8 38 4 18 8 20
14 10 5 -7 9 -21 9 -30z"/>
<path d="M2955 1450 c0 -78 1 -80 24 -80 19 0 21 3 12 14 -7 8 -11 34 -9 58
l3 43 33 -57 c47 -81 60 -76 64 22 2 66 0 80 -12 80 -12 0 -14 -11 -12 -52 l3
-53 -31 53 c-22 38 -36 52 -53 52 -21 0 -22 -4 -22 -80z"/>
<path d="M3140 1510 c-14 -14 -20 -33 -20 -63 0 -54 22 -77 73 -77 30 0 37 4
37 20 0 24 -9 26 -24 4 -16 -21 -43 -8 -49 24 -12 61 22 125 48 89 16 -23 25
-22 25 3 0 16 -7 20 -35 20 -22 0 -43 -8 -55 -20z"/>
<path d="M3302 1513 c-5 -10 -15 -36 -22 -58 -7 -22 -19 -50 -26 -62 -14 -21
-13 -23 9 -23 20 0 23 4 19 25 -4 22 -1 25 28 25 29 0 32 -3 28 -25 -5 -23 -2
-25 31 -25 20 0 31 4 25 8 -7 4 -20 39 -31 77 -20 72 -43 94 -61 58z m27 -70
c1 -7 -8 -13 -18 -13 -18 0 -19 3 -9 32 10 28 12 30 19 12 4 -10 8 -25 8 -31z"/>
<path d="M1905 1220 l0 -80 37 0 c57 0 85 15 97 53 22 66 -12 107 -91 107
l-43 0 0 -80z m85 50 c11 -11 20 -33 20 -50 0 -29 -29 -70 -50 -70 -6 0 -10
30 -10 70 0 74 7 83 40 50z"/>
<path d="M2075 1220 l0 -80 58 0 c50 0 57 2 57 20 0 24 -13 26 -30 5 -22 -27
-40 -18 -40 20 0 34 12 46 25 25 11 -18 25 -10 25 15 0 14 -4 25 -10 25 -5 0
-10 -4 -10 -10 0 -5 -7 -10 -15 -10 -10 0 -15 10 -15 30 0 33 19 40 44 15 20
-20 26 -19 26 5 0 18 -7 20 -57 20 l-58 0 0 -80z"/>
<path d="M2225 1287 c-25 -19 -14 -58 25 -80 16 -10 30 -24 30 -31 0 -21 -33
-29 -46 -12 -15 22 -24 20 -24 -4 0 -16 7 -20 38 -20 70 0 85 50 27 94 -21 17
-32 32 -29 41 8 19 33 19 40 0 9 -22 24 -18 24 5 0 16 -7 20 -33 20 -18 0 -41
-6 -52 -13z"/>
<path d="M2335 1220 l0 -80 46 0 c58 0 88 22 95 72 5 30 2 41 -19 62 -21 21
-36 26 -74 26 l-48 0 0 -80z m83 54 c31 -21 31 -87 0 -108 -12 -8 -25 -13 -30
-10 -10 7 -11 134 0 134 4 0 18 -7 30 -16z"/>
<path d="M2505 1220 l0 -80 58 0 c50 0 57 2 57 20 0 24 -13 26 -30 5 -22 -27
-40 -18 -40 20 0 34 12 46 25 25 11 -18 25 -10 25 15 0 14 -4 25 -10 25 -5 0
-10 -4 -10 -10 0 -5 -7 -10 -15 -10 -10 0 -15 10 -15 30 0 23 4 30 20 30 11 0
23 -7 26 -15 9 -22 24 -18 24 5 0 18 -7 20 -57 20 l-58 0 0 -80z"/>
<path d="M2703 1285 c-9 -24 5 -31 21 -10 7 10 18 15 24 11 20 -12 13 -46 -16
-85 -49 -62 -49 -61 12 -61 47 0 56 3 56 18 0 15 -7 17 -37 14 l-38 -4 38 39
c39 41 48 77 21 87 -30 11 -75 6 -81 -9z"/>
<path d="M2857 1282 c-19 -21 -23 -92 -7 -123 14 -25 61 -25 83 -1 22 24 23
105 1 126 -21 21 -57 20 -77 -2z m60 -49 c3 -23 0 -50 -7 -63 -12 -23 -13 -23
-26 -5 -17 23 -18 78 -3 107 15 27 29 11 36 -39z"/>
<path d="M2993 1294 c-15 -7 -18 -34 -3 -34 5 0 13 7 18 17 12 20 42 10 42
-14 0 -10 -16 -38 -35 -62 -19 -24 -35 -48 -35 -52 0 -5 25 -9 55 -9 48 0 55
3 55 19 0 17 -5 19 -35 14 -43 -7 -44 4 -5 42 44 42 39 79 -10 82 -19 1 -41 0
-47 -3z"/>
<path d="M3133 1293 c-16 -6 -17 -33 -2 -33 7 0 17 7 24 17 14 19 35 10 35
-16 0 -10 -16 -38 -35 -62 -19 -24 -35 -47 -35 -51 0 -5 25 -8 55 -8 48 0 55
3 55 19 0 17 -5 19 -37 14 l-38 -6 31 34 c38 42 48 67 33 85 -11 14 -61 18
-86 7z"/>
</g>
</svg>
